<?xml version="1.0" encoding="UTF-8" standalone="no"?>
<!DOCTYPE svg PUBLIC "-//W3C//DTD SVG 1.1//EN"
 "http://www.w3.org/Graphics/SVG/1.1/DTD/svg11.dtd">
<!-- Generated by graphviz version 2.43.0 (0)
 -->
<!-- Title: urd_script Pages: 1 -->
<svg width="2466pt" height="1507pt"
 viewBox="0.00 0.00 2466.00 1507.35" xmlns="http://www.w3.org/2000/svg" xmlns:xlink="http://www.w3.org/1999/xlink">
<g id="graph0" class="graph" transform="scale(1 1) rotate(0) translate(4 1503.35)">
<title>urd_script</title>
<polygon fill="white" stroke="transparent" points="-4,4 -4,-1503.35 2462,-1503.35 2462,4 -4,4"/>
<g id="clust1" class="cluster">
<title>cluster_start</title>
<path fill="#f0fff4" stroke="darkgreen" stroke-width="3" d="M20,-81.5C20,-81.5 551,-81.5 551,-81.5 557,-81.5 563,-87.5 563,-93.5 563,-93.5 563,-978.75 563,-978.75 563,-984.75 557,-990.75 551,-990.75 551,-990.75 20,-990.75 20,-990.75 14,-990.75 8,-984.75 8,-978.75 8,-978.75 8,-93.5 8,-93.5 8,-87.5 14,-81.5 20,-81.5"/>
<text text-anchor="middle" x="285.5" y="-975.55" font-family="Times,serif" font-size="14.00">start</text>
</g>
<g id="clust2" class="cluster">
<title>cluster_talk</title>
<path fill="#f0fff4" stroke="darkgreen" stroke-width="1.5" d="M583,-915.75C583,-915.75 1013,-915.75 1013,-915.75 1019,-915.75 1025,-921.75 1025,-927.75 1025,-927.75 1025,-1479.35 1025,-1479.35 1025,-1485.35 1019,-1491.35 1013,-1491.35 1013,-1491.35 583,-1491.35 583,-1491.35 577,-1491.35 571,-1485.35 571,-1479.35 571,-1479.35 571,-927.75 571,-927.75 571,-921.75 577,-915.75 583,-915.75"/>
<text text-anchor="middle" x="798" y="-1476.15" font-family="Times,serif" font-size="14.00">talk</text>
</g>
<g id="clust3" class="cluster">
<title>cluster_notice_board</title>
<path fill="#f0fff4" stroke="darkgreen" stroke-width="1.5" d="M1105,-915.75C1105,-915.75 1667,-915.75 1667,-915.75 1673,-915.75 1679,-921.75 1679,-927.75 1679,-927.75 1679,-1479.35 1679,-1479.35 1679,-1485.35 1673,-1491.35 1667,-1491.35 1667,-1491.35 1105,-1491.35 1105,-1491.35 1099,-1491.35 1093,-1485.35 1093,-1479.35 1093,-1479.35 1093,-927.75 1093,-927.75 1093,-921.75 1099,-915.75 1105,-915.75"/>
<text text-anchor="middle" x="1386" y="-1476.15" font-family="Times,serif" font-size="14.00">notice_board</text>
</g>
<g id="clust4" class="cluster">
<title>cluster_compute_rank</title>
<path fill="#f0fff4" stroke="darkgreen" stroke-width="1.5" d="M2020,-1117.75C2020,-1117.75 2438,-1117.75 2438,-1117.75 2444,-1117.75 2450,-1123.75 2450,-1129.75 2450,-1129.75 2450,-1479.35 2450,-1479.35 2450,-1485.35 2444,-1491.35 2438,-1491.35 2438,-1491.35 2020,-1491.35 2020,-1491.35 2014,-1491.35 2008,-1485.35 2008,-1479.35 2008,-1479.35 2008,-1129.75 2008,-1129.75 2008,-1123.75 2014,-1117.75 2020,-1117.75"/>
<text text-anchor="middle" x="2229" y="-1476.15" font-family="Times,serif" font-size="14.00">compute_rank</text>
</g>
<g id="clust5" class="cluster">
<title>cluster_log_visit</title>
<path fill="#f0fff4" stroke="darkgreen" stroke-width="1.5" d="M1699,-1213.75C1699,-1213.75 1957,-1213.75 1957,-1213.75 1963,-1213.75 1969,-1219.75 1969,-1225.75 1969,-1225.75 1969,-1479.35 1969,-1479.35 1969,-1485.35 1963,-1491.35 1957,-1491.35 1957,-1491.35 1699,-1491.35 1699,-1491.35 1693,-1491.35 1687,-1485.35 1687,-1479.35 1687,-1479.35 1687,-1225.75 1687,-1225.75 1687,-1219.75 1693,-1213.75 1699,-1213.75"/>
<text text-anchor="middle" x="1828" y="-1476.15" font-family="Times,serif" font-size="14.00">log_visit</text>
</g>
<!-- __start__ -->
<g id="node1" class="node">
<title>__start__</title>
<polygon fill="#1b4332" stroke="black" stroke-width="2" points="190.4,-1435.03 256,-1418.66 321.6,-1435.03 321.54,-1461.53 190.46,-1461.53 190.4,-1435.03"/>
<text text-anchor="middle" x="256" y="-1439.25" font-family="monospace" font-size="12.00" fill="white">▶ START</text>
</g>
<!-- N55 -->
<g id="node2" class="node">
<title>N55</title>
<polygon fill="lightcyan" stroke="black" points="352,-1367.75 160,-1367.75 160,-1331.75 352,-1331.75 352,-1367.75"/>
<text text-anchor="middle" x="256" y="-1346.95" font-family="monospace" font-size="11.00">global reputation = ⟨expr⟩</text>
</g>
<!-- __start__&#45;&gt;N55 -->
<g id="edge1" class="edge">
<title>__start__&#45;&gt;N55</title>
<path fill="none" stroke="black" d="M256,-1418.51C256,-1418.51 256,-1377.96 256,-1377.96"/>
<polygon fill="black" stroke="black" points="259.5,-1377.96 256,-1367.96 252.5,-1377.96 259.5,-1377.96"/>
</g>
<!-- N54 -->
<g id="node47" class="node">
<title>N54</title>
<polygon fill="lightcyan" stroke="black" points="348.5,-1257.75 163.5,-1257.75 163.5,-1221.75 348.5,-1221.75 348.5,-1257.75"/>
<text text-anchor="middle" x="256" y="-1236.95" font-family="monospace" font-size="11.00">const max_health = ⟨expr⟩</text>
</g>
<!-- N55&#45;&gt;N54 -->
<g id="edge59" class="edge">
<title>N55&#45;&gt;N54</title>
<path fill="none" stroke="black" d="M256,-1331.59C256,-1331.59 256,-1267.95 256,-1267.95"/>
<polygon fill="black" stroke="black" points="259.5,-1267.95 256,-1257.95 252.5,-1267.95 259.5,-1267.95"/>
</g>
<!-- N0 -->
<g id="node3" class="node">
<title>N0</title>
<polygon fill="palegreen" stroke="black" points="276,-953.75 224,-953.75 224,-929.75 276,-929.75 288,-941.75 276,-953.75"/>
<text text-anchor="middle" x="256" y="-938.95" font-family="monospace" font-size="11.00">▶ start</text>
</g>
<!-- N51 -->
<g id="node16" class="node">
<title>N51</title>
<polygon fill="lightsalmon" stroke="black" points="389,-877.75 123,-877.75 123,-833.75 389,-833.75 389,-877.75"/>
<text text-anchor="middle" x="256" y="-864.95" font-family="monospace" font-size="11.00">Narrator:</text>
<text text-anchor="middle" x="256" y="-852.95" font-family="monospace" font-size="11.00">&quot;You push open the heavy oak door a…&quot;</text>
<text text-anchor="middle" x="256" y="-840.95" font-family="monospace" font-size="11.00">@voiced @timed</text>
</g>
<!-- N0&#45;&gt;N51 -->
<g id="edge2" class="edge">
<title>N0&#45;&gt;N51</title>
<path fill="none" stroke="black" d="M240,-923.52C240,-923.52 240,-887.94 240,-887.94"/>
<polygon fill="black" stroke="black" points="243.5,-887.94 240,-877.94 236.5,-887.94 243.5,-887.94"/>
</g>
<!-- N37 -->
<g id="node4" class="node">
<title>N37</title>
<polygon fill="wheat" stroke="black" points="89.5,-196.5 16.5,-196.5 16.5,-172.5 89.5,-172.5 89.5,-166.5 107.5,-184.5 89.5,-202.5 89.5,-196.5"/>
<text text-anchor="middle" x="62" y="-181.7" font-family="monospace" font-size="11.00">jump → talk</text>
</g>
<!-- N1 -->
<g id="node17" class="node">
<title>N1</title>
<polygon fill="palegreen" stroke="black" points="851.5,-1454.35 806.5,-1454.35 806.5,-1430.35 851.5,-1430.35 863.5,-1442.35 851.5,-1454.35"/>
<text text-anchor="middle" x="835" y="-1439.55" font-family="monospace" font-size="11.00">▶ talk</text>
</g>
<!-- N37&#45;&gt;N1 -->
<g id="edge37" class="edge">
<title>N37&#45;&gt;N1</title>
<path fill="none" stroke="#666666" stroke-dasharray="5,2" d="M77.17,-202.57C77.17,-217.75 77.17,-237 77.17,-237 77.17,-237 544.25,-237 544.25,-237 544.25,-237 544.25,-1442 544.25,-1442 544.25,-1442 796.33,-1442 796.33,-1442"/>
<polygon fill="#666666" stroke="#666666" points="796.33,-1445.5 806.33,-1442 796.33,-1438.5 796.33,-1445.5"/>
</g>
<!-- N38 -->
<g id="node5" class="node">
<title>N38</title>
<polygon fill="wheat" stroke="black" points="252.5,-196.5 125.5,-196.5 125.5,-172.5 252.5,-172.5 252.5,-166.5 270.5,-184.5 252.5,-202.5 252.5,-196.5"/>
<text text-anchor="middle" x="198" y="-181.7" font-family="monospace" font-size="11.00">jump → notice_board</text>
</g>
<!-- N2 -->
<g id="node27" class="node">
<title>N2</title>
<polygon fill="palegreen" stroke="black" points="1561.5,-1454.35 1462.5,-1454.35 1462.5,-1430.35 1561.5,-1430.35 1573.5,-1442.35 1561.5,-1454.35"/>
<text text-anchor="middle" x="1518" y="-1439.55" font-family="monospace" font-size="11.00">▶ notice_board</text>
</g>
<!-- N38&#45;&gt;N2 -->
<g id="edge38" class="edge">
<title>N38&#45;&gt;N2</title>
<path fill="none" stroke="#666666" stroke-dasharray="5,2" d="M222.55,-202.75C222.55,-211.87 222.55,-221 222.55,-221 222.55,-221 1059,-221 1059,-221 1059,-221 1059,-1442 1059,-1442 1059,-1442 1452.18,-1442 1452.18,-1442"/>
<polygon fill="#666666" stroke="#666666" points="1452.18,-1445.5 1462.18,-1442 1452.18,-1438.5 1452.18,-1445.5"/>
</g>
<!-- N39 -->
<g id="node6" class="node">
<title>N39</title>
<polygon fill="mistyrose" stroke="black" points="450.5,-125.5 393.5,-125.5 393.5,-89.5 450.5,-89.5 450.5,-125.5"/>
<text text-anchor="middle" x="422" y="-104.7" font-family="monospace" font-size="11.00">return</text>
</g>
<!-- __end__ -->
<g id="node48" class="node">
<title>__end__</title>
<ellipse fill="tomato" stroke="black" cx="422" cy="-26.25" rx="22.46" ry="22.46"/>
<ellipse fill="none" stroke="black" cx="422" cy="-26.25" rx="26.5" ry="26.5"/>
<text text-anchor="middle" x="422" y="-23.45" font-family="monospace" font-size="11.00" fill="white">END</text>
</g>
<!-- N39&#45;&gt;__end__ -->
<g id="edge39" class="edge">
<title>N39&#45;&gt;__end__</title>
<path fill="none" stroke="#666666" stroke-dasharray="5,2" d="M422,-89.47C422,-89.47 422,-62.56 422,-62.56"/>
<polygon fill="#666666" stroke="#666666" points="425.5,-62.56 422,-52.56 418.5,-62.56 425.5,-62.56"/>
</g>
<!-- N40 -->
<g id="node7" class="node">
<title>N40</title>
<polygon fill="lightsalmon" stroke="black" points="555,-206.5 289,-206.5 289,-162.5 555,-162.5 555,-206.5"/>
<text text-anchor="middle" x="422" y="-193.7" font-family="monospace" font-size="11.00">Narrator:</text>
<text text-anchor="middle" x="422" y="-181.7" font-family="monospace" font-size="11.00">&quot;You step back out into the cold ni…&quot;</text>
<text text-anchor="middle" x="422" y="-169.7" font-family="monospace" font-size="11.00">@voiced</text>
</g>
<!-- N40&#45;&gt;N39 -->
<g id="edge40" class="edge">
<title>N40&#45;&gt;N39</title>
<path fill="none" stroke="black" d="M422,-162.23C422,-162.23 422,-135.58 422,-135.58"/>
<polygon fill="black" stroke="black" points="425.5,-135.58 422,-125.58 418.5,-135.58 425.5,-135.58"/>
</g>
<!-- N41 -->
<g id="node8" class="node">
<title>N41</title>
<polygon fill="plum" stroke="black" points="319.19,-278.63 271.1,-304.88 174.9,-304.88 126.81,-278.63 174.9,-252.37 271.1,-252.37 319.19,-278.63"/>
<text text-anchor="middle" x="223" y="-281.83" font-family="monospace" font-size="11.00">choice (3 opts)</text>
<text text-anchor="middle" x="223" y="-269.83" font-family="monospace" font-size="11.00">@important</text>
</g>
<!-- N41&#45;&gt;N37 -->
<g id="edge41" class="edge">
<title>N41&#45;&gt;N37</title>
<path fill="none" stroke="purple" d="M127.7,-278C86.19,-278 46.83,-278 46.83,-278 46.83,-278 46.83,-212.53 46.83,-212.53"/>
<polygon fill="purple" stroke="purple" points="50.33,-212.53 46.83,-202.53 43.33,-212.53 50.33,-212.53"/>
<text text-anchor="middle" x="130" y="-227.3" font-family="monospace" font-size="9.00">[0] Talk to the innkeeper</text>
</g>
<!-- N41&#45;&gt;N38 -->
<g id="edge42" class="edge">
<title>N41&#45;&gt;N38</title>
<path fill="none" stroke="purple" d="M174.6,-252.41C174.6,-252.41 174.6,-212.54 174.6,-212.54"/>
<polygon fill="purple" stroke="purple" points="178.1,-212.54 174.6,-202.54 171.1,-212.54 178.1,-212.54"/>
<text text-anchor="middle" x="290.5" y="-227.3" font-family="monospace" font-size="9.00">[1] Check the notice board</text>
</g>
<!-- N41&#45;&gt;N40 -->
<g id="edge43" class="edge">
<title>N41&#45;&gt;N40</title>
<path fill="none" stroke="purple" d="M304.17,-270.27C304.17,-270.27 304.17,-216.72 304.17,-216.72"/>
<polygon fill="purple" stroke="purple" points="307.67,-216.72 304.17,-206.72 300.67,-216.72 307.67,-216.72"/>
<text text-anchor="middle" x="456" y="-227.3" font-family="monospace" font-size="9.00">[2] Leave the tavern</text>
</g>
<!-- N42 -->
<g id="node9" class="node">
<title>N42</title>
<polygon fill="wheat" stroke="black" points="264.5,-380.75 189.5,-380.75 189.5,-356.75 264.5,-356.75 264.5,-350.75 282.5,-368.75 264.5,-386.75 264.5,-380.75"/>
<text text-anchor="middle" x="236" y="-365.95" font-family="monospace" font-size="11.00">⤑ log_visit</text>
</g>
<!-- N42&#45;&gt;N41 -->
<g id="edge45" class="edge">
<title>N42&#45;&gt;N41</title>
<path fill="none" stroke="darkslateblue" stroke-dasharray="5,2" d="M236,-350.52C236,-350.52 236,-315.04 236,-315.04"/>
<polygon fill="darkslateblue" stroke="darkslateblue" points="239.5,-315.04 236,-305.04 232.5,-315.04 239.5,-315.04"/>
<text text-anchor="middle" x="231" y="-325.55" font-family="monospace" font-size="9.00">ret</text>
</g>
<!-- N4 -->
<g id="node42" class="node">
<title>N4</title>
<polygon fill="palegreen" stroke="black" points="1861.5,-1454.35 1782.5,-1454.35 1782.5,-1430.35 1861.5,-1430.35 1873.5,-1442.35 1861.5,-1454.35"/>
<text text-anchor="middle" x="1828" y="-1439.55" font-family="monospace" font-size="11.00">▶ log_visit</text>
</g>
<!-- N42&#45;&gt;N4 -->
<g id="edge44" class="edge">
<title>N42&#45;&gt;N4</title>
<path fill="none" stroke="#666666" stroke-dasharray="5,2" d="M282.51,-379C530.18,-379 1683,-379 1683,-379 1683,-379 1683,-1442 1683,-1442 1683,-1442 1772.12,-1442 1772.12,-1442"/>
<polygon fill="#666666" stroke="#666666" points="1772.12,-1445.5 1782.12,-1442 1772.12,-1438.5 1772.12,-1445.5"/>
<text text-anchor="middle" x="525" y="-898.55" font-family="monospace" font-size="9.00">call</text>
</g>
<!-- N43 -->
<g id="node10" class="node">
<title>N43</title>
<polygon fill="wheat" stroke="black" points="301.5,-462.75 206.5,-462.75 206.5,-438.75 301.5,-438.75 301.5,-432.75 319.5,-450.75 301.5,-468.75 301.5,-462.75"/>
<text text-anchor="middle" x="263" y="-453.95" font-family="monospace" font-size="11.00">⤑ compute_rank</text>
<text text-anchor="middle" x="263" y="-441.95" font-family="monospace" font-size="11.00">→ rank</text>
</g>
<!-- N43&#45;&gt;N42 -->
<g id="edge47" class="edge">
<title>N43&#45;&gt;N42</title>
<path fill="none" stroke="darkslateblue" stroke-dasharray="5,2" d="M244.5,-432.56C244.5,-432.56 244.5,-396.9 244.5,-396.9"/>
<polygon fill="darkslateblue" stroke="darkslateblue" points="248,-396.9 244.5,-386.9 241,-396.9 248,-396.9"/>
<text text-anchor="middle" x="244" y="-407.55" font-family="monospace" font-size="9.00">ret</text>
</g>
<!-- N3 -->
<g id="node36" class="node">
<title>N3</title>
<polygon fill="palegreen" stroke="black" points="2239.5,-1454.35 2140.5,-1454.35 2140.5,-1430.35 2239.5,-1430.35 2251.5,-1442.35 2239.5,-1454.35"/>
<text text-anchor="middle" x="2196" y="-1439.55" font-family="monospace" font-size="11.00">▶ compute_rank</text>
</g>
<!-- N43&#45;&gt;N3 -->
<g id="edge46" class="edge">
<title>N43&#45;&gt;N3</title>
<path fill="none" stroke="#666666" stroke-dasharray="5,2" d="M319.92,-444C618.31,-444 1988.5,-444 1988.5,-444 1988.5,-444 1988.5,-1442 1988.5,-1442 1988.5,-1442 2130.39,-1442 2130.39,-1442"/>
<polygon fill="#666666" stroke="#666666" points="2130.39,-1445.5 2140.39,-1442 2130.39,-1438.5 2130.39,-1445.5"/>
<text text-anchor="middle" x="1920" y="-939.55" font-family="monospace" font-size="9.00">call</text>
</g>
<!-- N45 -->
<g id="node11" class="node">
<title>N45</title>
<polygon fill="lightsalmon" stroke="black" points="276,-595.75 16,-595.75 16,-559.75 276,-559.75 276,-595.75"/>
<text text-anchor="middle" x="146" y="-580.95" font-family="monospace" font-size="11.00">Innkeeper:</text>
<text text-anchor="middle" x="146" y="-568.95" font-family="monospace" font-size="11.00">&quot;Ah, a friendly face! Welcome back.&quot;</text>
</g>
<!-- N45&#45;&gt;N43 -->
<g id="edge48" class="edge">
<title>N45&#45;&gt;N43</title>
<path fill="none" stroke="black" d="M142.33,-559.72C142.33,-524.51 142.33,-450 142.33,-450 142.33,-450 196.2,-450 196.2,-450"/>
<polygon fill="black" stroke="black" points="196.2,-453.5 206.2,-450 196.2,-446.5 196.2,-453.5"/>
</g>
<!-- N47 -->
<g id="node12" class="node">
<title>N47</title>
<polygon fill="lightsalmon" stroke="black" points="370,-541.75 158,-541.75 158,-505.75 370,-505.75 370,-541.75"/>
<text text-anchor="middle" x="264" y="-526.95" font-family="monospace" font-size="11.00">Innkeeper:</text>
<text text-anchor="middle" x="264" y="-514.95" font-family="monospace" font-size="11.00">&quot;I&#39;m watching you, stranger.&quot;</text>
</g>
<!-- N47&#45;&gt;N43 -->
<g id="edge49" class="edge">
<title>N47&#45;&gt;N43</title>
<path fill="none" stroke="black" d="M263,-505.71C263,-505.71 263,-478.85 263,-478.85"/>
<polygon fill="black" stroke="black" points="266.5,-478.85 263,-468.85 259.5,-478.85 266.5,-478.85"/>
</g>
<!-- N48 -->
<g id="node13" class="node">
<title>N48</title>
<polygon fill="lightsalmon" stroke="black" points="533.5,-541.75 388.5,-541.75 388.5,-505.75 533.5,-505.75 533.5,-541.75"/>
<text text-anchor="middle" x="461" y="-526.95" font-family="monospace" font-size="11.00">Innkeeper:</text>
<text text-anchor="middle" x="461" y="-514.95" font-family="monospace" font-size="11.00">&quot;What do you want?&quot;</text>
</g>
<!-- N48&#45;&gt;N43 -->
<g id="edge50" class="edge">
<title>N48&#45;&gt;N43</title>
<path fill="none" stroke="black" d="M461,-505.6C461,-485.53 461,-456 461,-456 461,-456 329.74,-456 329.74,-456"/>
<polygon fill="black" stroke="black" points="329.74,-452.5 319.74,-456 329.74,-459.5 329.74,-452.5"/>
</g>
<!-- N49 -->
<g id="node14" class="node">
<title>N49</title>
<polygon fill="lightyellow" stroke="black" points="317,-677.75 165,-645.75 317,-613.75 469,-645.75 317,-677.75"/>
<text text-anchor="middle" x="317" y="-648.95" font-family="monospace" font-size="11.00">branch</text>
<text text-anchor="middle" x="317" y="-636.95" font-family="monospace" font-size="11.00">reputati… LessThan 0</text>
</g>
<!-- N49&#45;&gt;N47 -->
<g id="edge51" class="edge">
<title>N49&#45;&gt;N47</title>
<path fill="none" stroke="black" d="M323,-614.97C323,-614.97 323,-552.01 323,-552.01"/>
<polygon fill="black" stroke="black" points="326.5,-552.01 323,-542.01 319.5,-552.01 326.5,-552.01"/>
<text text-anchor="middle" x="319" y="-575.55" font-family="monospace" font-size="9.00">then</text>
</g>
<!-- N49&#45;&gt;N48 -->
<g id="edge52" class="edge">
<title>N49&#45;&gt;N48</title>
<path fill="none" stroke="black" stroke-dasharray="5,2" d="M428.75,-636.98C428.75,-636.98 428.75,-552.12 428.75,-552.12"/>
<polygon fill="black" stroke="black" points="432.25,-552.12 428.75,-542.12 425.25,-552.12 432.25,-552.12"/>
<text text-anchor="middle" x="421" y="-575.55" font-family="monospace" font-size="9.00">else</text>
</g>
<!-- N50 -->
<g id="node15" class="node">
<title>N50</title>
<polygon fill="lightyellow" stroke="black" points="256,-787.75 77,-755.75 256,-723.75 435,-755.75 256,-787.75"/>
<text text-anchor="middle" x="256" y="-758.95" font-family="monospace" font-size="11.00">branch</text>
<text text-anchor="middle" x="256" y="-746.95" font-family="monospace" font-size="11.00">reputati… GreaterThan 10</text>
</g>
<!-- N50&#45;&gt;N45 -->
<g id="edge53" class="edge">
<title>N50&#45;&gt;N45</title>
<path fill="none" stroke="black" d="M121,-747.64C121,-747.64 121,-605.82 121,-605.82"/>
<polygon fill="black" stroke="black" points="124.5,-605.82 121,-595.82 117.5,-605.82 124.5,-605.82"/>
<text text-anchor="middle" x="157" y="-698.55" font-family="monospace" font-size="9.00">then</text>
</g>
<!-- N50&#45;&gt;N49 -->
<g id="edge54" class="edge">
<title>N50&#45;&gt;N49</title>
<path fill="none" stroke="black" stroke-dasharray="5,2" d="M300,-731.61C300,-731.61 300,-684.52 300,-684.52"/>
<polygon fill="black" stroke="black" points="303.5,-684.52 300,-674.52 296.5,-684.52 303.5,-684.52"/>
<text text-anchor="middle" x="274" y="-698.55" font-family="monospace" font-size="9.00">else</text>
</g>
<!-- N51&#45;&gt;N50 -->
<g id="edge55" class="edge">
<title>N51&#45;&gt;N50</title>
<path fill="none" stroke="black" d="M256,-833.56C256,-833.56 256,-798.14 256,-798.14"/>
<polygon fill="black" stroke="black" points="259.5,-798.14 256,-788.14 252.5,-798.14 259.5,-798.14"/>
</g>
<!-- N35 -->
<g id="node26" class="node">
<title>N35</title>
<polygon fill="lightsalmon" stroke="black" points="924.5,-1377.75 745.5,-1377.75 745.5,-1321.75 924.5,-1321.75 924.5,-1377.75"/>
<text text-anchor="middle" x="835" y="-1364.95" font-family="monospace" font-size="11.00">Innkeeper:</text>
<text text-anchor="middle" x="835" y="-1352.95" font-family="monospace" font-size="11.00">&quot;What can I do for you?&quot;</text>
<text text-anchor="middle" x="835" y="-1340.95" font-family="monospace" font-size="11.00">&quot;Don&#39;t keep me waiting.&quot;</text>
<text text-anchor="middle" x="835" y="-1328.95" font-family="monospace" font-size="11.00">@voiced</text>
</g>
<!-- N1&#45;&gt;N35 -->
<g id="edge3" class="edge">
<title>N1&#45;&gt;N35</title>
<path fill="none" stroke="black" d="M835,-1424.06C835,-1424.06 835,-1387.86 835,-1387.86"/>
<polygon fill="black" stroke="black" points="838.5,-1387.86 835,-1377.86 831.5,-1387.86 838.5,-1387.86"/>
</g>
<!-- N27 -->
<g id="node18" class="node">
<title>N27</title>
<polygon fill="wheat" stroke="black" points="743,-953.75 663,-953.75 663,-929.75 743,-929.75 743,-923.75 761,-941.75 743,-959.75 743,-953.75"/>
<text text-anchor="middle" x="712" y="-938.95" font-family="monospace" font-size="11.00">jump → start</text>
</g>
<!-- N27&#45;&gt;N0 -->
<g id="edge26" class="edge">
<title>N27&#45;&gt;N0</title>
<path fill="none" stroke="#666666" stroke-dasharray="5,2" d="M662.77,-941C662.77,-941 298.19,-941 298.19,-941"/>
<polygon fill="#666666" stroke="#666666" points="298.19,-937.5 288.19,-941 298.19,-944.5 298.19,-937.5"/>
</g>
<!-- N28 -->
<g id="node19" class="node">
<title>N28</title>
<polygon fill="lightsalmon" stroke="black" points="845,-1053.75 579,-1053.75 579,-1017.75 845,-1017.75 845,-1053.75"/>
<text text-anchor="middle" x="712" y="-1038.95" font-family="monospace" font-size="11.00">Innkeeper:</text>
<text text-anchor="middle" x="712" y="-1026.95" font-family="monospace" font-size="11.00">&quot;They say the old mill is haunted n…&quot;</text>
</g>
<!-- N28&#45;&gt;N27 -->
<g id="edge27" class="edge">
<title>N28&#45;&gt;N27</title>
<path fill="none" stroke="black" d="M712,-1017.63C712,-1017.63 712,-969.82 712,-969.82"/>
<polygon fill="black" stroke="black" points="715.5,-969.82 712,-959.82 708.5,-969.82 715.5,-969.82"/>
</g>
<!-- N29 -->
<g id="node20" class="node">
<title>N29</title>
<polygon fill="lightcyan" stroke="black" points="751,-1161.75 579,-1161.75 579,-1125.75 751,-1125.75 751,-1161.75"/>
<text text-anchor="middle" x="665" y="-1140.95" font-family="monospace" font-size="11.00">let reputation = ⟨expr⟩</text>
</g>
<!-- N29&#45;&gt;N28 -->
<g id="edge28" class="edge">
<title>N29&#45;&gt;N28</title>
<path fill="none" stroke="black" d="M665,-1125.43C665,-1125.43 665,-1063.8 665,-1063.8"/>
<polygon fill="black" stroke="black" points="668.5,-1063.8 665,-1053.8 661.5,-1063.8 668.5,-1063.8"/>
</g>
<!-- N30 -->
<g id="node21" class="node">
<title>N30</title>
<polygon fill="wheat" stroke="black" points="967,-953.75 887,-953.75 887,-929.75 967,-929.75 967,-923.75 985,-941.75 967,-959.75 967,-953.75"/>
<text text-anchor="middle" x="936" y="-938.95" font-family="monospace" font-size="11.00">jump → start</text>
</g>
<!-- N30&#45;&gt;N0 -->
<g id="edge29" class="edge">
<title>N30&#45;&gt;N0</title>
<path fill="none" stroke="#666666" stroke-dasharray="5,2" d="M936,-923.69C936,-915.67 936,-908 936,-908 936,-908 272,-908 272,-908 272,-908 272,-913.69 272,-913.69"/>
<polygon fill="#666666" stroke="#666666" points="268.5,-913.69 272,-923.69 275.5,-913.69 268.5,-913.69"/>
</g>
<!-- N31 -->
<g id="node22" class="node">
<title>N31</title>
<polygon fill="lightsalmon" stroke="black" points="1008.5,-1053.75 863.5,-1053.75 863.5,-1017.75 1008.5,-1017.75 1008.5,-1053.75"/>
<text text-anchor="middle" x="936" y="-1038.95" font-family="monospace" font-size="11.00">Innkeeper:</text>
<text text-anchor="middle" x="936" y="-1026.95" font-family="monospace" font-size="11.00">&quot;Two gold. Pay up.&quot;</text>
</g>
<!-- N31&#45;&gt;N30 -->
<g id="edge30" class="edge">
<title>N31&#45;&gt;N30</title>
<path fill="none" stroke="black" d="M936,-1017.63C936,-1017.63 936,-969.82 936,-969.82"/>
<polygon fill="black" stroke="black" points="939.5,-969.82 936,-959.82 932.5,-969.82 939.5,-969.82"/>
</g>
<!-- N32 -->
<g id="node23" class="node">
<title>N32</title>
<polygon fill="lightcyan" stroke="black" points="900.5,-1161.75 769.5,-1161.75 769.5,-1125.75 900.5,-1125.75 900.5,-1161.75"/>
<text text-anchor="middle" x="835" y="-1140.95" font-family="monospace" font-size="11.00">let cost = ⟨expr⟩</text>
</g>
<!-- N32&#45;&gt;N31 -->
<g id="edge31" class="edge">
<title>N32&#45;&gt;N31</title>
<path fill="none" stroke="black" d="M882,-1125.43C882,-1125.43 882,-1063.8 882,-1063.8"/>
<polygon fill="black" stroke="black" points="885.5,-1063.8 882,-1053.8 878.5,-1063.8 885.5,-1063.8"/>
</g>
<!-- N33 -->
<g id="node24" class="node">
<title>N33</title>
<polygon fill="wheat" stroke="black" points="999,-1155.75 919,-1155.75 919,-1131.75 999,-1131.75 999,-1125.75 1017,-1143.75 999,-1161.75 999,-1155.75"/>
<text text-anchor="middle" x="968" y="-1140.95" font-family="monospace" font-size="11.00">jump → start</text>
</g>
<!-- N33&#45;&gt;N0 -->
<g id="edge32" class="edge">
<title>N33&#45;&gt;N0</title>
<path fill="none" stroke="#666666" stroke-dasharray="5,2" d="M1012.75,-1125.58C1012.75,-1084.5 1012.75,-988 1012.75,-988 1012.75,-988 266.67,-988 266.67,-988 266.67,-988 266.67,-969.77 266.67,-969.77"/>
<polygon fill="#666666" stroke="#666666" points="270.17,-969.77 266.67,-959.77 263.17,-969.77 270.17,-969.77"/>
</g>
<!-- N34 -->
<g id="node25" class="node">
<title>N34</title>
<polygon fill="plum" stroke="black" points="916.87,-1239.75 875.94,-1257.75 794.06,-1257.75 753.13,-1239.75 794.06,-1221.75 875.94,-1221.75 916.87,-1239.75"/>
<text text-anchor="middle" x="835" y="-1236.95" font-family="monospace" font-size="11.00">choice (3 opts)</text>
</g>
<!-- N34&#45;&gt;N29 -->
<g id="edge33" class="edge">
<title>N34&#45;&gt;N29</title>
<path fill="none" stroke="purple" d="M761.28,-1236.08C761.28,-1218.41 761.28,-1143 761.28,-1143 761.28,-1143 760.29,-1143 760.29,-1143"/>
<polygon fill="purple" stroke="purple" points="761.34,-1139.5 751.34,-1143 761.34,-1146.5 761.34,-1139.5"/>
<text text-anchor="middle" x="739" y="-1182.55" font-family="monospace" font-size="9.00">[0] Ask about local rumours</text>
</g>
<!-- N34&#45;&gt;N32 -->
<g id="edge34" class="edge">
<title>N34&#45;&gt;N32</title>
<path fill="none" stroke="purple" d="M835,-1221.7C835,-1221.7 835,-1172.06 835,-1172.06"/>
<polygon fill="purple" stroke="purple" points="838.5,-1172.06 835,-1162.06 831.5,-1172.06 838.5,-1172.06"/>
<text text-anchor="middle" x="874.5" y="-1182.55" font-family="monospace" font-size="9.00">[1] Buy a drink</text>
</g>
<!-- N34&#45;&gt;N33 -->
<g id="edge35" class="edge">
<title>N34&#45;&gt;N33</title>
<path fill="none" stroke="purple" d="M908.72,-1236.08C908.72,-1218.41 908.72,-1143 908.72,-1143 908.72,-1143 909.72,-1143 909.72,-1143"/>
<polygon fill="purple" stroke="purple" points="908.77,-1146.5 918.77,-1143 908.77,-1139.5 908.77,-1146.5"/>
<text text-anchor="middle" x="977" y="-1182.55" font-family="monospace" font-size="9.00">[2] Never mind</text>
</g>
<!-- N35&#45;&gt;N34 -->
<g id="edge36" class="edge">
<title>N35&#45;&gt;N34</title>
<path fill="none" stroke="black" d="M835,-1321.71C835,-1321.71 835,-1268.08 835,-1268.08"/>
<polygon fill="black" stroke="black" points="838.5,-1268.08 835,-1258.08 831.5,-1268.08 838.5,-1268.08"/>
</g>
<!-- N25 -->
<g id="node35" class="node">
<title>N25</title>
<polygon fill="lightcyan" stroke="black" points="1590.5,-1367.75 1445.5,-1367.75 1445.5,-1331.75 1590.5,-1331.75 1590.5,-1367.75"/>
<text text-anchor="middle" x="1518" y="-1346.95" font-family="monospace" font-size="11.00">let action = ⟨expr⟩</text>
</g>
<!-- N2&#45;&gt;N25 -->
<g id="edge4" class="edge">
<title>N2&#45;&gt;N25</title>
<path fill="none" stroke="black" d="M1518,-1424.06C1518,-1424.06 1518,-1378.01 1518,-1378.01"/>
<polygon fill="black" stroke="black" points="1521.5,-1378.01 1518,-1368.01 1514.5,-1378.01 1521.5,-1378.01"/>
</g>
<!-- N17 -->
<g id="node28" class="node">
<title>N17</title>
<polygon fill="wheat" stroke="black" points="1455,-953.75 1375,-953.75 1375,-929.75 1455,-929.75 1455,-923.75 1473,-941.75 1455,-959.75 1455,-953.75"/>
<text text-anchor="middle" x="1424" y="-938.95" font-family="monospace" font-size="11.00">jump → start</text>
</g>
<!-- N17&#45;&gt;N0 -->
<g id="edge16" class="edge">
<title>N17&#45;&gt;N0</title>
<path fill="none" stroke="#666666" stroke-dasharray="5,2" d="M1424,-923.6C1424,-909.74 1424,-893 1424,-893 1424,-893 256,-893 256,-893 256,-893 256,-913.6 256,-913.6"/>
<polygon fill="#666666" stroke="#666666" points="252.5,-913.6 256,-923.6 259.5,-913.6 252.5,-913.6"/>
</g>
<!-- N19 -->
<g id="node29" class="node">
<title>N19</title>
<polygon fill="lightcyan" stroke="black" points="1320,-1053.75 1148,-1053.75 1148,-1017.75 1320,-1017.75 1320,-1053.75"/>
<text text-anchor="middle" x="1234" y="-1032.95" font-family="monospace" font-size="11.00">let reputation = ⟨expr⟩</text>
</g>
<!-- N19&#45;&gt;N17 -->
<g id="edge17" class="edge">
<title>N19&#45;&gt;N17</title>
<path fill="none" stroke="black" d="M1234,-1017.49C1234,-989.95 1234,-941 1234,-941 1234,-941 1364.58,-941 1364.58,-941"/>
<polygon fill="black" stroke="black" points="1364.58,-944.5 1374.58,-941 1364.58,-937.5 1364.58,-944.5"/>
</g>
<!-- N20 -->
<g id="node30" class="node">
<title>N20</title>
<polygon fill="lightsalmon" stroke="black" points="1367,-1161.75 1101,-1161.75 1101,-1125.75 1367,-1125.75 1367,-1161.75"/>
<text text-anchor="middle" x="1234" y="-1146.95" font-family="monospace" font-size="11.00">Narrator:</text>
<text text-anchor="middle" x="1234" y="-1134.95" font-family="monospace" font-size="11.00">&quot;You tear the notices from the boar…&quot;</text>
</g>
<!-- N20&#45;&gt;N19 -->
<g id="edge18" class="edge">
<title>N20&#45;&gt;N19</title>
<path fill="none" stroke="black" d="M1234,-1125.43C1234,-1125.43 1234,-1063.8 1234,-1063.8"/>
<polygon fill="black" stroke="black" points="1237.5,-1063.8 1234,-1053.8 1230.5,-1063.8 1237.5,-1063.8"/>
</g>
<!-- N21 -->
<g id="node31" class="node">
<title>N21</title>
<polygon fill="lightcyan" stroke="black" points="1510,-1053.75 1338,-1053.75 1338,-1017.75 1510,-1017.75 1510,-1053.75"/>
<text text-anchor="middle" x="1424" y="-1032.95" font-family="monospace" font-size="11.00">let reputation = ⟨expr⟩</text>
</g>
<!-- N21&#45;&gt;N17 -->
<g id="edge19" class="edge">
<title>N21&#45;&gt;N17</title>
<path fill="none" stroke="black" d="M1424,-1017.63C1424,-1017.63 1424,-969.82 1424,-969.82"/>
<polygon fill="black" stroke="black" points="1427.5,-969.82 1424,-959.82 1420.5,-969.82 1427.5,-969.82"/>
</g>
<!-- N22 -->
<g id="node32" class="node">
<title>N22</title>
<polygon fill="lightsalmon" stroke="black" points="1651,-1161.75 1385,-1161.75 1385,-1125.75 1651,-1125.75 1651,-1161.75"/>
<text text-anchor="middle" x="1518" y="-1146.95" font-family="monospace" font-size="11.00">Narrator:</text>
<text text-anchor="middle" x="1518" y="-1134.95" font-family="monospace" font-size="11.00">&quot;You study the bounty posters caref…&quot;</text>
</g>
<!-- N22&#45;&gt;N21 -->
<g id="edge20" class="edge">
<title>N22&#45;&gt;N21</title>
<path fill="none" stroke="black" d="M1395,-1125.43C1395,-1125.43 1395,-1063.8 1395,-1063.8"/>
<polygon fill="black" stroke="black" points="1398.5,-1063.8 1395,-1053.8 1391.5,-1063.8 1398.5,-1063.8"/>
</g>
<!-- N23 -->
<g id="node33" class="node">
<title>N23</title>
<polygon fill="lightsalmon" stroke="black" points="1671,-1107.75 1405,-1107.75 1405,-1071.75 1671,-1071.75 1671,-1107.75"/>
<text text-anchor="middle" x="1538" y="-1092.95" font-family="monospace" font-size="11.00">Narrator:</text>
<text text-anchor="middle" x="1538" y="-1080.95" font-family="monospace" font-size="11.00">&quot;You glance at the board and move o…&quot;</text>
</g>
<!-- N23&#45;&gt;N17 -->
<g id="edge21" class="edge">
<title>N23&#45;&gt;N17</title>
<path fill="none" stroke="black" d="M1590.5,-1071.51C1590.5,-1031.79 1590.5,-941 1590.5,-941 1590.5,-941 1483.05,-941 1483.05,-941"/>
<polygon fill="black" stroke="black" points="1483.05,-937.5 1473.05,-941 1483.05,-944.5 1483.05,-937.5"/>
</g>
<!-- N24 -->
<g id="node34" class="node">
<title>N24</title>
<polygon fill="lightyellow" stroke="black" points="1518,-1257.75 1423.71,-1239.75 1518,-1221.75 1612.29,-1239.75 1518,-1257.75"/>
<text text-anchor="middle" x="1518" y="-1236.95" font-family="monospace" font-size="11.00">match (3 arms)</text>
</g>
<!-- N24&#45;&gt;N20 -->
<g id="edge22" class="edge">
<title>N24&#45;&gt;N20</title>
<path fill="none" stroke="black" d="M1427.36,-1239C1344.25,-1239 1234,-1239 1234,-1239 1234,-1239 1234,-1172.12 1234,-1172.12"/>
<polygon fill="black" stroke="black" points="1237.5,-1172.12 1234,-1162.12 1230.5,-1172.12 1237.5,-1172.12"/>
<text text-anchor="middle" x="1364.5" y="-1182.55" font-family="monospace" font-size="9.00">Action.Attack</text>
</g>
<!-- N24&#45;&gt;N22 -->
<g id="edge23" class="edge">
<title>N24&#45;&gt;N22</title>
<path fill="none" stroke="black" d="M1518,-1221.7C1518,-1221.7 1518,-1172.06 1518,-1172.06"/>
<polygon fill="black" stroke="black" points="1521.5,-1172.06 1518,-1162.06 1514.5,-1172.06 1521.5,-1172.06"/>
<text text-anchor="middle" x="1547" y="-1182.55" font-family="monospace" font-size="9.00">Action.Talk</text>
</g>
<!-- N24&#45;&gt;N23 -->
<g id="edge24" class="edge">
<title>N24&#45;&gt;N23</title>
<path fill="none" stroke="black" stroke-dasharray="5,2" d="M1608.56,-1239C1636.94,-1239 1661,-1239 1661,-1239 1661,-1239 1661,-1117.76 1661,-1117.76"/>
<polygon fill="black" stroke="black" points="1664.5,-1117.76 1661,-1107.76 1657.5,-1117.76 1664.5,-1117.76"/>
<text text-anchor="middle" x="1652.5" y="-1182.55" font-family="monospace" font-size="9.00">default</text>
</g>
<!-- N25&#45;&gt;N24 -->
<g id="edge25" class="edge">
<title>N25&#45;&gt;N24</title>
<path fill="none" stroke="black" d="M1518,-1331.59C1518,-1331.59 1518,-1267.95 1518,-1267.95"/>
<polygon fill="black" stroke="black" points="1521.5,-1267.95 1518,-1257.95 1514.5,-1267.95 1521.5,-1267.95"/>
</g>
<!-- N15 -->
<g id="node41" class="node">
<title>N15</title>
<polygon fill="lightyellow" stroke="black" points="2196,-1381.75 2017,-1349.75 2196,-1317.75 2375,-1349.75 2196,-1381.75"/>
<text text-anchor="middle" x="2196" y="-1352.95" font-family="monospace" font-size="11.00">branch</text>
<text text-anchor="middle" x="2196" y="-1340.95" font-family="monospace" font-size="11.00">reputati… GreaterThan 10</text>
</g>
<!-- N3&#45;&gt;N15 -->
<g id="edge5" class="edge">
<title>N3&#45;&gt;N15</title>
<path fill="none" stroke="black" d="M2196,-1424.06C2196,-1424.06 2196,-1391.89 2196,-1391.89"/>
<polygon fill="black" stroke="black" points="2199.5,-1391.89 2196,-1381.89 2192.5,-1391.89 2199.5,-1391.89"/>
</g>
<!-- N9 -->
<g id="node37" class="node">
<title>N9</title>
<polygon fill="mistyrose" stroke="black" points="2134,-1161.75 2030,-1161.75 2030,-1125.75 2134,-1125.75 2134,-1161.75"/>
<text text-anchor="middle" x="2082" y="-1140.95" font-family="monospace" font-size="11.00">return ⟨expr⟩</text>
</g>
<!-- N9&#45;&gt;N42 -->
<g id="edge9" class="edge">
<title>N9&#45;&gt;N42</title>
<path fill="none" stroke="darkslateblue" stroke-dasharray="5,2" d="M2082,-1125.44C2082,-1008.57 2082,-372 2082,-372 2082,-372 292.55,-372 292.55,-372"/>
<polygon fill="darkslateblue" stroke="darkslateblue" points="292.56,-368.5 282.55,-372 292.55,-375.5 292.56,-368.5"/>
<text text-anchor="middle" x="630" y="-753.55" font-family="monospace" font-size="9.00">↩</text>
</g>
<!-- N11 -->
<g id="node38" class="node">
<title>N11</title>
<polygon fill="mistyrose" stroke="black" points="2256,-1161.75 2152,-1161.75 2152,-1125.75 2256,-1125.75 2256,-1161.75"/>
<text text-anchor="middle" x="2204" y="-1140.95" font-family="monospace" font-size="11.00">return ⟨expr⟩</text>
</g>
<!-- N11&#45;&gt;N42 -->
<g id="edge10" class="edge">
<title>N11&#45;&gt;N42</title>
<path fill="none" stroke="darkslateblue" stroke-dasharray="5,2" d="M2204,-1125.65C2204,-1008.72 2204,-365 2204,-365 2204,-365 292.71,-365 292.71,-365"/>
<polygon fill="darkslateblue" stroke="darkslateblue" points="292.71,-361.5 282.71,-365 292.71,-368.5 292.71,-361.5"/>
<text text-anchor="middle" x="672" y="-753.55" font-family="monospace" font-size="9.00">↩</text>
</g>
<!-- N12 -->
<g id="node39" class="node">
<title>N12</title>
<polygon fill="lightyellow" stroke="black" points="2168,-1271.75 2016,-1239.75 2168,-1207.75 2320,-1239.75 2168,-1271.75"/>
<text text-anchor="middle" x="2168" y="-1242.95" font-family="monospace" font-size="11.00">branch</text>
<text text-anchor="middle" x="2168" y="-1230.95" font-family="monospace" font-size="11.00">reputati… LessThan 0</text>
</g>
<!-- N12&#45;&gt;N9 -->
<g id="edge12" class="edge">
<title>N12&#45;&gt;N9</title>
<path fill="none" stroke="black" stroke-dasharray="5,2" d="M2082,-1225.59C2082,-1225.59 2082,-1171.92 2082,-1171.92"/>
<polygon fill="black" stroke="black" points="2085.5,-1171.92 2082,-1161.92 2078.5,-1171.92 2085.5,-1171.92"/>
<text text-anchor="middle" x="2125" y="-1182.55" font-family="monospace" font-size="9.00">else</text>
</g>
<!-- N12&#45;&gt;N11 -->
<g id="edge11" class="edge">
<title>N12&#45;&gt;N11</title>
<path fill="none" stroke="black" d="M2204,-1215.28C2204,-1215.28 2204,-1171.82 2204,-1171.82"/>
<polygon fill="black" stroke="black" points="2207.5,-1171.82 2204,-1161.82 2200.5,-1171.82 2207.5,-1171.82"/>
<text text-anchor="middle" x="2197" y="-1182.55" font-family="monospace" font-size="9.00">then</text>
</g>
<!-- N14 -->
<g id="node40" class="node">
<title>N14</title>
<polygon fill="mistyrose" stroke="black" points="2442,-1257.75 2338,-1257.75 2338,-1221.75 2442,-1221.75 2442,-1257.75"/>
<text text-anchor="middle" x="2390" y="-1236.95" font-family="monospace" font-size="11.00">return ⟨expr⟩</text>
</g>
<!-- N14&#45;&gt;N42 -->
<g id="edge13" class="edge">
<title>N14&#45;&gt;N42</title>
<path fill="none" stroke="darkslateblue" stroke-dasharray="5,2" d="M2390,-1221.72C2390,-1096.13 2390,-357 2390,-357 2390,-357 292.74,-357 292.74,-357"/>
<polygon fill="darkslateblue" stroke="darkslateblue" points="292.74,-353.5 282.74,-357 292.74,-360.5 292.74,-353.5"/>
<text text-anchor="middle" x="638" y="-808.55" font-family="monospace" font-size="9.00">↩</text>
</g>
<!-- N15&#45;&gt;N12 -->
<g id="edge15" class="edge">
<title>N15&#45;&gt;N12</title>
<path fill="none" stroke="black" stroke-dasharray="5,2" d="M2168.5,-1322.56C2168.5,-1322.56 2168.5,-1281.71 2168.5,-1281.71"/>
<polygon fill="black" stroke="black" points="2172,-1281.71 2168.5,-1271.71 2165,-1281.71 2172,-1281.71"/>
<text text-anchor="middle" x="2193" y="-1292.55" font-family="monospace" font-size="9.00">else</text>
</g>
<!-- N15&#45;&gt;N14 -->
<g id="edge14" class="edge">
<title>N15&#45;&gt;N14</title>
<path fill="none" stroke="black" d="M2356.5,-1346.09C2356.5,-1346.09 2356.5,-1267.87 2356.5,-1267.87"/>
<polygon fill="black" stroke="black" points="2360,-1267.87 2356.5,-1257.87 2353,-1267.87 2360,-1267.87"/>
<text text-anchor="middle" x="2314" y="-1292.55" font-family="monospace" font-size="9.00">then</text>
</g>
<!-- N7 -->
<g id="node44" class="node">
<title>N7</title>
<polygon fill="lightsalmon" stroke="black" points="1961,-1367.75 1695,-1367.75 1695,-1331.75 1961,-1331.75 1961,-1367.75"/>
<text text-anchor="middle" x="1828" y="-1352.95" font-family="monospace" font-size="11.00">Narrator:</text>
<text text-anchor="middle" x="1828" y="-1340.95" font-family="monospace" font-size="11.00">&quot;Your visit has been recorded in th…&quot;</text>
</g>
<!-- N4&#45;&gt;N7 -->
<g id="edge6" class="edge">
<title>N4&#45;&gt;N7</title>
<path fill="none" stroke="black" d="M1828,-1424.06C1828,-1424.06 1828,-1378.01 1828,-1378.01"/>
<polygon fill="black" stroke="black" points="1831.5,-1378.01 1828,-1368.01 1824.5,-1378.01 1831.5,-1378.01"/>
</g>
<!-- N6 -->
<g id="node43" class="node">
<title>N6</title>
<polygon fill="mistyrose" stroke="black" points="1856.5,-1257.75 1799.5,-1257.75 1799.5,-1221.75 1856.5,-1221.75 1856.5,-1257.75"/>
<text text-anchor="middle" x="1828" y="-1236.95" font-family="monospace" font-size="11.00">return</text>
</g>
<!-- N6&#45;&gt;N41 -->
<g id="edge7" class="edge">
<title>N6&#45;&gt;N41</title>
<path fill="none" stroke="darkslateblue" stroke-dasharray="5,2" d="M1828,-1221.4C1828,-1088.44 1828,-278 1828,-278 1828,-278 328.3,-278 328.3,-278"/>
<polygon fill="darkslateblue" stroke="darkslateblue" points="328.3,-274.5 318.3,-278 328.3,-281.5 328.3,-274.5"/>
<text text-anchor="middle" x="550" y="-753.55" font-family="monospace" font-size="9.00">↩</text>
</g>
<!-- N7&#45;&gt;N6 -->
<g id="edge8" class="edge">
<title>N7&#45;&gt;N6</title>
<path fill="none" stroke="black" d="M1828,-1331.59C1828,-1331.59 1828,-1267.95 1828,-1267.95"/>
<polygon fill="black" stroke="black" points="1831.5,-1267.95 1828,-1257.95 1824.5,-1267.95 1831.5,-1267.95"/>
</g>
<!-- N52 -->
<g id="node45" class="node">
<title>N52</title>
<polygon fill="#e6e6fa" stroke="black" points="321.5,-1053.75 190.5,-1053.75 190.5,-1017.75 321.5,-1017.75 321.5,-1053.75"/>
<text text-anchor="middle" x="256" y="-1038.95" font-family="monospace" font-size="11.00">def_decorator</text>
<text text-anchor="middle" x="256" y="-1026.95" font-family="monospace" font-size="11.00">@timed (2 params)</text>
</g>
<!-- N52&#45;&gt;N0 -->
<g id="edge56" class="edge">
<title>N52&#45;&gt;N0</title>
<path fill="none" stroke="black" d="M245.33,-1017.63C245.33,-1017.63 245.33,-969.82 245.33,-969.82"/>
<polygon fill="black" stroke="black" points="248.83,-969.82 245.33,-959.82 241.83,-969.82 248.83,-969.82"/>
</g>
<!-- N53 -->
<g id="node46" class="node">
<title>N53</title>
<polygon fill="lavender" stroke="black" points="345.5,-1161.75 166.5,-1161.75 166.5,-1125.75 345.5,-1125.75 345.5,-1161.75"/>
<text text-anchor="middle" x="256" y="-1140.95" font-family="monospace" font-size="11.00">enum Action (3 variants)</text>
</g>
<!-- N53&#45;&gt;N52 -->
<g id="edge57" class="edge">
<title>N53&#45;&gt;N52</title>
<path fill="none" stroke="black" d="M256,-1125.43C256,-1125.43 256,-1063.8 256,-1063.8"/>
<polygon fill="black" stroke="black" points="259.5,-1063.8 256,-1053.8 252.5,-1063.8 259.5,-1063.8"/>
</g>
<!-- N54&#45;&gt;N53 -->
<g id="edge58" class="edge">
<title>N54&#45;&gt;N53</title>
<path fill="none" stroke="black" d="M256,-1221.7C256,-1221.7 256,-1172.06 256,-1172.06"/>
<polygon fill="black" stroke="black" points="259.5,-1172.06 256,-1162.06 252.5,-1172.06 259.5,-1172.06"/>
</g>
</g>
</svg>
